<svg xmlns="http://www.w3.org/2000/svg" viewBox="0 0 512 512">
  <rect width="512" height="512" rx="96" ry="96" fill="#22CCEE"/>
  <!-- Viewfinder corners -->
  <g fill="none" stroke="#fff" stroke-width="28" stroke-linecap="round" stroke-linejoin="round">
    <path d="M96 192 L96 132 Q96 96 132 96 L192 96"/>
    <path d="M320 96 L380 96 Q416 96 416 132 L416 192"/>
    <path d="M416 320 L416 380 Q416 416 380 416 L320 416"/>
    <path d="M192 416 L132 416 Q96 416 96 380 L96 320"/>
  </g>
  <!-- Dollar sign: clean S-curve + vertical bar -->
  <g fill="none" stroke="#fff" stroke-linecap="round" stroke-linejoin="round">
    <path d="M300 188 C292 164 268 152 244 160 C216 170 208 196 232 218 C256 240 284 252 288 280 C294 316 268 340 240 340 C216 340 200 324 196 304" stroke-width="30"/>
    <line x1="256" y1="140" x2="256" y2="370" stroke-width="24"/>
  </g>
</svg>
